<svg width="30" height="30" viewBox="0 0 30 30" fill="none" xmlns="http://www.w3.org/2000/svg">
<path d="M25.6694 16.0148H23.3493C23.5858 16.6622 23.715 17.361 23.715 18.0892V26.8578C23.715 27.1614 23.6621 27.4529 23.566 27.7239H27.4016C28.8344 27.7239 30 26.5583 30 25.1255V20.3454C30 17.9575 28.0573 16.0148 25.6694 16.0148Z" fill="#F3AA3C"/>
<path d="M6.28507 18.0893C6.28507 17.361 6.41427 16.6624 6.65075 16.0149H4.33067C1.94274 16.0149 0 17.9576 0 20.3456V25.1257C0 26.5584 1.16561 27.7241 2.5984 27.7241H6.43407C6.33792 27.4529 6.28507 27.1616 6.28507 26.8579V18.0893Z" fill="#F3AA3C"/>
<path d="M17.652 13.7588H12.348C9.96007 13.7588 8.01733 15.7015 8.01733 18.0895V26.858C8.01733 27.3363 8.40511 27.7242 8.88347 27.7242H21.1166C21.5949 27.7242 21.9827 27.3364 21.9827 26.858V18.0895C21.9827 15.7015 20.04 13.7588 17.652 13.7588Z" fill="#F3AA3C"/>
<path d="M15 2.27576C12.1282 2.27576 9.79187 4.61213 9.79187 7.48399C9.79187 9.43194 10.867 11.1332 12.4548 12.0264C13.2079 12.4501 14.0761 12.6922 15 12.6922C15.9239 12.6922 16.7922 12.4501 17.5453 12.0264C19.1331 11.1332 20.2082 9.43188 20.2082 7.48399C20.2082 4.61219 17.8718 2.27576 15 2.27576Z" fill="#F3AA3C"/>
<path d="M5.85444 7.13025C3.70668 7.13025 1.95941 8.87752 1.95941 11.0253C1.95941 13.173 3.70668 14.9203 5.85444 14.9203C6.39924 14.9203 6.91803 14.8075 7.3893 14.6046C8.20411 14.2538 8.87595 13.6328 9.29167 12.855C9.58347 12.3091 9.74947 11.6863 9.74947 11.0253C9.74947 8.87758 8.0022 7.13025 5.85444 7.13025Z" fill="#F3AA3C"/>
<path d="M24.1456 7.13025C21.9978 7.13025 20.2505 8.87752 20.2505 11.0253C20.2505 11.6863 20.4165 12.3091 20.7083 12.855C21.1241 13.6329 21.7959 14.2539 22.6107 14.6046C23.082 14.8075 23.6008 14.9203 24.1456 14.9203C26.2933 14.9203 28.0406 13.173 28.0406 11.0253C28.0406 8.87752 26.2933 7.13025 24.1456 7.13025Z" fill="#F3AA3C"/>
</svg>
