<svg width="31" height="24" viewBox="0 0 31 24" fill="none" xmlns="http://www.w3.org/2000/svg">
<path d="M24.9757 18.2549C23.5075 18.2549 22.3132 19.4508 22.3132 20.9214C22.3132 22.3925 23.5075 23.5892 24.9757 23.5892C26.4445 23.5892 27.6385 22.3925 27.6385 20.9214C27.6385 19.4508 26.4445 18.2549 24.9757 18.2549Z" fill="#F3AA3C"/>
<path d="M7.02175 18.2549C5.55286 18.2549 4.35852 19.4508 4.35852 20.9214C4.35852 22.3925 5.55286 23.5892 7.02175 23.5892C8.48983 23.5892 9.68417 22.3925 9.68417 20.9214C9.68427 19.4508 8.48993 18.2549 7.02175 18.2549Z" fill="#F3AA3C"/>
<path d="M26.478 7.0529C26.3375 6.62957 25.9413 6.34351 25.495 6.34351H24.2364V10.7706H27.7095L26.478 7.0529Z" fill="#F3AA3C"/>
<path d="M29.8142 12.427H24.2364V16.6622C24.4767 16.6209 24.7237 16.5978 24.9756 16.5978C27.2011 16.5978 29.0387 18.2917 29.27 20.4589H29.465C30.0364 20.4589 30.5 19.9953 30.5 19.4232V13.4006C30.5 12.9512 30.2135 12.5706 29.8142 12.427Z" fill="#F3AA3C"/>
<path d="M22.5403 1.44634C22.5403 0.87422 22.0767 0.410583 21.5051 0.410583H1.53505C0.963636 0.410583 0.5 0.874119 0.5 1.44634V19.4234C0.5 19.9955 0.963636 20.4592 1.53505 20.4592H2.72697C2.95838 18.292 4.79586 16.5981 7.02181 16.5981C9.24696 16.5981 11.0841 18.292 11.3155 20.4592H19.4898H20.6817C20.8211 19.1543 21.5424 18.0225 22.5803 17.327L22.5403 1.44634Z" fill="#F3AA3C"/>
</svg>
