<svg width="30" height="28" viewBox="0 0 30 28" fill="none" xmlns="http://www.w3.org/2000/svg">
<path d="M29.8788 12.1201C29.6825 10.6063 28.1063 9.57006 26.5975 10.1351C26.0325 10.3488 25.3525 10.0313 25.0975 9.46131C24.7925 8.78132 24.4188 8.13006 23.9838 7.52507C23.5963 6.98631 23.67 6.2813 24.1513 5.8838C24.7263 5.4113 25.0475 4.71257 25.0325 3.96879C25.0175 3.21252 24.6613 2.5163 24.055 2.05628C23.0575 1.3013 21.97 0.672534 20.8213 0.188784C20.5113 0.0587647 20.1863 -0.00744629 19.855 -0.00744629C18.6575 -0.00744629 17.6475 0.843804 17.4525 2.01632C17.35 2.63255 16.7663 3.05132 16.1088 2.98007C15.3787 2.90255 14.6188 2.90255 13.89 2.98007C13.235 3.05132 12.6488 2.63255 12.5463 2.01632C12.3513 0.843804 11.3413 -0.00744629 10.1437 -0.00744629C9.81252 -0.00744629 9.4875 0.0588233 9.17877 0.188784C8.02875 0.672534 6.94125 1.30001 5.94375 2.05628C5.33877 2.5163 4.98252 3.21251 4.96752 3.96755C4.95252 4.71257 5.27379 5.41007 5.84877 5.88504C6.33129 6.2813 6.40254 6.9863 6.01629 7.52379C5.58129 8.12877 5.20629 8.78004 4.90131 9.46002C4.64631 10.03 4.01631 10.365 3.38754 10.1287C3.11256 10.0263 2.82627 9.97377 2.53629 9.97377C1.31631 9.97377 0.278789 10.8963 0.120059 12.12C0.04125 12.74 0 13.3738 0 14C0 14.6263 0.04125 15.26 0.12123 15.88C0.31623 17.3925 1.89123 18.4288 3.40248 17.865C3.96621 17.6512 4.64748 17.9688 4.90248 18.5388C5.20746 19.2187 5.58123 19.87 6.01623 20.475C6.40371 21.0138 6.33 21.7188 5.84871 22.1163C5.27373 22.5888 4.95246 23.2875 4.96746 24.0313C4.98246 24.7876 5.33871 25.4838 5.94498 25.9438C6.94248 26.6988 8.02998 27.3275 9.17871 27.8113C9.48873 27.9413 9.81369 28.0075 10.145 28.0075C11.3425 28.0075 12.3525 27.1563 12.5475 25.9837C12.65 25.3675 13.235 24.955 13.8912 25.02C14.62 25.0975 15.38 25.0975 16.11 25.02C16.7675 24.9537 17.3513 25.3675 17.4537 25.9837C17.6487 27.1563 18.6587 28.0062 19.8563 28.0075C20.1875 28.0075 20.5125 27.9412 20.8212 27.8113C21.97 27.3275 23.0588 26.7001 24.055 25.9438C24.6599 25.4838 25.0175 24.7876 25.0325 24.0325C25.0475 23.2875 24.7262 22.59 24.1512 22.115C23.6687 21.7188 23.5975 21.0138 23.9837 20.4763C24.4187 19.8713 24.7937 19.22 25.0987 18.5401C25.3537 17.9688 25.9849 17.6351 26.6125 17.8713C26.8874 17.9751 27.1737 18.0276 27.4637 18.0276C28.6837 18.0276 29.7212 17.1051 29.8799 15.8814C29.9587 15.2538 30 14.6225 30 14C30 13.3775 29.9587 12.7463 29.8788 12.1201ZM15 19C12.2425 19 10 16.7575 10 14C10 11.2426 12.2425 9.00006 15 9.00006C17.7575 9.00006 20 11.2426 20 14C20 16.7575 17.7575 19 15 19Z" fill="#F5BB63"/>
</svg>
