<svg width="24" height="30" viewBox="0 0 24 30" fill="none" xmlns="http://www.w3.org/2000/svg">
<path d="M23.1859 17.5647C22.8422 13.0905 20.7591 10.2867 18.9214 7.81257C17.2197 5.52202 15.75 3.54401 15.75 0.626162C15.75 0.391787 15.6188 0.177568 15.4106 0.070166C15.2019 -0.0378809 14.951 -0.0201856 14.7612 0.117744C12.0012 2.09271 9.69838 5.42136 8.89395 8.59737C8.33549 10.8085 8.2616 13.2943 8.25123 14.936C5.7024 14.3917 5.12502 10.5791 5.11893 10.5375C5.09022 10.3398 4.96939 10.1677 4.79361 10.0737C4.61602 9.98095 4.40725 9.97421 4.22719 10.0633C4.09354 10.128 0.946523 11.727 0.763418 18.1115C0.750586 18.3239 0.75 18.5369 0.75 18.7499C0.75 24.9525 5.79697 29.9992 12 29.9992C12.0086 29.9997 12.0177 30.001 12.025 29.9992C12.0275 29.9992 12.0299 29.9992 12.0329 29.9992C18.2207 29.9814 23.25 24.9415 23.25 18.7499C23.25 18.438 23.1859 17.5647 23.1859 17.5647ZM12 28.7492C9.93211 28.7492 8.25 26.9574 8.25 24.7548C8.25 24.6797 8.24941 24.604 8.25486 24.5113C8.27988 23.5824 8.45631 22.9483 8.64979 22.5265C9.01236 23.3053 9.66053 24.0212 10.7134 24.0212C11.0589 24.0212 11.3384 23.7416 11.3384 23.3962C11.3384 22.5064 11.3568 21.4799 11.5783 20.5534C11.7755 19.7319 12.2466 18.8579 12.8436 18.1573C13.1091 19.0667 13.6267 19.8027 14.1321 20.521C14.8553 21.5488 15.603 22.6114 15.7342 24.4234C15.7421 24.5308 15.7501 24.6388 15.7501 24.7548C15.75 26.9573 14.0679 28.7492 12 28.7492Z" fill="white"/>
</svg>
