<svg width="24" height="30" viewBox="0 0 24 30" fill="none" xmlns="http://www.w3.org/2000/svg">
<path d="M12.3379 10.0342L10.6249 7.75023C10.5071 7.59273 10.3216 7.49998 10.1251 7.49998H8.25006V6.25H8.87508C9.22055 6.25 9.5001 5.97045 9.5001 5.62498V3.12496C9.5001 2.77949 9.22055 2.49994 8.87508 2.49994H6.375C6.02953 2.49994 5.74998 2.77949 5.74998 3.12496V5.62498C5.74998 5.97045 6.02953 6.25 6.375 6.25H7.00002V7.49998H5.12502C4.9285 7.49998 4.74293 7.59273 4.62516 7.75023L2.91223 10.0342C1.69412 10.201 0.75 11.2369 0.75 12.5V27.5C0.75 28.8788 1.87119 30 3.25002 30H12C13.3788 30 14.5 28.8788 14.5 27.5V12.5C14.5 11.2369 13.5558 10.201 12.3379 10.0342Z" fill="white"/>
<path d="M22.628 1.24998C22.9712 1.24998 23.25 0.97043 23.25 0.624961C23.25 0.279551 22.9712 0 22.628 0H22.6152C22.272 0 21.9999 0.279551 21.9999 0.62502C22 0.970488 22.2842 1.24998 22.628 1.24998Z" fill="white"/>
<path d="M22.628 7.5H22.6152C22.272 7.5 21.9999 7.77955 21.9999 8.12502C21.9999 8.47049 22.2842 8.75004 22.628 8.75004C22.9712 8.75004 23.25 8.47049 23.25 8.12502C23.25 7.77955 22.9712 7.5 22.628 7.5Z" fill="white"/>
<path d="M21.3781 3.75H21.3653C21.0221 3.75 20.75 4.02955 20.75 4.37502C20.75 4.72049 21.0342 5.00004 21.3781 5.00004C21.7212 5.00004 22 4.72049 22 4.37502C22 4.02955 21.7212 3.75 21.3781 3.75Z" fill="white"/>
<path d="M18.878 1.24997H18.8652C18.522 1.24997 18.2499 1.52952 18.2499 1.87499C18.2499 2.22046 18.5342 2.50001 18.878 2.50001C19.2212 2.50001 19.5 2.22046 19.5 1.87499C19.5 1.52952 19.2212 1.24997 18.878 1.24997Z" fill="white"/>
<path d="M18.878 3.75H18.8652C18.522 3.75 18.2499 4.02955 18.2499 4.37502C18.2499 4.72049 18.5342 5.00004 18.878 5.00004C19.2212 5.00004 19.5 4.72049 19.5 4.37502C19.5 4.02955 19.2212 3.75 18.878 3.75Z" fill="white"/>
<path d="M18.878 6.25003H18.8652C18.522 6.25003 18.2499 6.52958 18.2499 6.87505C18.2499 7.22051 18.5342 7.50006 18.878 7.50006C19.2212 7.50006 19.5 7.22051 19.5 6.87505C19.5 6.52958 19.2212 6.25003 18.878 6.25003Z" fill="white"/>
<path d="M16.3781 4.99997H16.3653C16.0221 4.99997 15.75 5.27952 15.75 5.62499C15.75 5.97046 16.0342 6.25001 16.3781 6.25001C16.7212 6.25001 17 5.97046 17 5.62499C17 5.27952 16.7212 4.99997 16.3781 4.99997Z" fill="white"/>
<path d="M16.3781 2.50003H16.3653C16.0221 2.50003 15.75 2.77958 15.75 3.12505C15.75 3.47046 16.0342 3.75001 16.3781 3.75001C16.7212 3.75001 17 3.47046 17 3.12499C17 2.77958 16.7212 2.50003 16.3781 2.50003Z" fill="white"/>
<path d="M13.8781 3.75H13.8653C13.5221 3.75 13.25 4.02955 13.25 4.37502C13.25 4.72049 13.5342 5.00004 13.8781 5.00004C14.2212 5.00004 14.5 4.72049 14.5 4.37502C14.5 4.02955 14.2212 3.75 13.8781 3.75Z" fill="white"/>
</svg>
