<svg width="18" height="12" viewBox="0 0 18 12" fill="none" xmlns="http://www.w3.org/2000/svg">
<path d="M17.8395 10.0253C17.7911 9.94427 17.4919 9.29397 16.0518 7.95737C14.5442 6.55777 14.7467 6.78503 16.5626 4.36498C17.6685 2.89112 18.1107 1.99105 17.9723 1.60627C17.8406 1.23949 17.0272 1.33625 17.0272 1.33625L14.3225 1.352C14.3225 1.352 14.1222 1.325 13.9726 1.41388C13.8275 1.50164 13.7341 1.70415 13.7341 1.70415C13.7341 1.70415 13.3054 2.84499 12.7339 3.81481C11.5289 5.86134 11.0463 5.96935 10.8494 5.84221C10.3915 5.54632 10.5062 4.65187 10.5062 4.01733C10.5062 2.0338 10.8066 1.20687 9.92007 0.993101C9.6253 0.922221 9.40928 0.874967 8.6566 0.867092C7.69128 0.856966 6.87335 0.870467 6.41094 1.09661C6.10266 1.24737 5.86527 1.58377 6.01041 1.6029C6.1893 1.62652 6.59433 1.71203 6.80922 2.00455C7.08711 2.38145 7.07699 3.22977 7.07699 3.22977C7.07699 3.22977 7.23675 5.56432 6.70458 5.85459C6.33893 6.05373 5.83827 5.64757 4.76382 3.79006C4.21365 2.83936 3.79737 1.78741 3.79737 1.78741C3.79737 1.78741 3.71749 1.59165 3.57461 1.48701C3.40134 1.35988 3.15833 1.31938 3.15833 1.31938L0.586388 1.33513C0.586388 1.33513 0.200485 1.34638 0.0587249 1.51402C-0.0672843 1.66365 0.0485992 1.97192 0.0485992 1.97192C0.0485992 1.97192 2.0625 6.68265 4.34191 9.0577C6.43344 11.2347 8.80736 11.0919 8.80736 11.0919H9.88294C9.88294 11.0919 10.2081 11.0559 10.3735 10.877C10.5265 10.7127 10.5209 10.4044 10.5209 10.4044C10.5209 10.4044 10.4995 8.96094 11.17 8.7483C11.8305 8.53904 12.6788 10.1434 13.5777 10.7611C14.2573 11.228 14.7737 11.1256 14.7737 11.1256L17.178 11.0919C17.178 11.0919 18.4358 11.0142 17.8395 10.0253Z" fill="#F2F2F2"/>
</svg>
